<svg width="1000" height="1000" viewBox="0 0 1000 1000" fill="none" xmlns="http://www.w3.org/2000/svg">
<rect width="1000" height="1000" fill="black"/>
<rect x="253.815" y="684.678" width="584.416" height="87.6624" rx="43.8312" transform="rotate(-45 253.815 684.678)" fill="#5857ED"/>
<path d="M152.509 628.024C135.392 610.906 135.392 583.154 152.509 566.037L294.972 423.574C312.089 406.456 339.842 406.456 356.959 423.574V423.574C374.076 440.691 374.076 468.443 356.959 485.56L214.496 628.024C197.379 645.141 169.626 645.141 152.509 628.024V628.024Z" fill="#F9A712"/>
<path d="M418.952 361.59C401.835 344.473 401.835 316.72 418.952 299.603V299.603C436.069 282.486 463.822 282.486 480.939 299.603V299.603C498.056 316.72 498.056 344.473 480.939 361.59V361.59C463.822 378.707 436.069 378.707 418.952 361.59V361.59Z" fill="#AF5FFF"/>
<path d="M502.477 717.055C485.36 699.938 485.36 672.185 502.477 655.068L526.583 630.962C543.7 613.845 571.452 613.845 588.57 630.962V630.962C605.687 648.079 605.687 675.832 588.57 692.949L564.464 717.055C547.346 734.172 519.594 734.172 502.477 717.055V717.055Z" fill="#F0516C"/>
<path d="M650.56 568.97C633.443 551.853 633.443 524.1 650.56 506.983L785.951 371.593C803.068 354.476 830.82 354.476 847.937 371.593V371.593C865.055 388.71 865.055 416.462 847.937 433.579L712.547 568.97C695.43 586.087 667.677 586.087 650.56 568.97V568.97Z" fill="#5FA8FF"/>
</svg>
