<svg width="1000" height="1000" viewBox="0 0 1000 1000" fill="none" xmlns="http://www.w3.org/2000/svg">
<rect x="253.815" y="684.678" width="584.416" height="87.6624" rx="43.8312" transform="rotate(-45 253.815 684.678)" fill="#3130DF"/>
<path d="M152.509 628.025C135.392 610.907 135.392 583.155 152.509 566.038L294.972 423.575C312.089 406.457 339.842 406.457 356.959 423.575V423.575C374.076 440.692 374.076 468.444 356.959 485.561L214.496 628.025C197.379 645.142 169.626 645.142 152.509 628.025V628.025Z" fill="#F9A712"/>
<path d="M418.952 361.591C401.835 344.474 401.835 316.721 418.952 299.604V299.604C436.069 282.487 463.822 282.487 480.939 299.604V299.604C498.056 316.721 498.056 344.474 480.939 361.591V361.591C463.822 378.708 436.069 378.708 418.952 361.591V361.591Z" fill="#AF5FFF"/>
<path d="M502.477 717.056C485.36 699.939 485.36 672.186 502.477 655.069L526.583 630.963C543.7 613.846 571.452 613.846 588.57 630.963V630.963C605.687 648.08 605.687 675.833 588.57 692.95L564.464 717.056C547.346 734.173 519.594 734.173 502.477 717.056V717.056Z" fill="#F0516C"/>
<path d="M650.56 568.972C633.443 551.855 633.443 524.102 650.56 506.985L785.951 371.595C803.068 354.477 830.82 354.477 847.937 371.595V371.595C865.055 388.712 865.055 416.464 847.937 433.581L712.547 568.972C695.43 586.089 667.677 586.089 650.56 568.972V568.972Z" fill="#5FA8FF"/>
</svg>
