<svg width="1000" height="1000" viewBox="0 0 1000 1000" fill="none" xmlns="http://www.w3.org/2000/svg">
<path d="M321.263 480.714C321.263 483.385 322.999 485.589 326.471 487.325C330.077 488.928 334.418 490.397 339.492 491.732C344.567 492.934 349.642 494.537 354.717 496.54C359.792 498.41 364.066 501.615 367.538 506.156C371.144 510.696 372.947 516.372 372.947 523.183C372.947 533.467 369.074 541.413 361.328 547.022C353.715 552.497 344.167 555.235 332.681 555.235C312.115 555.235 298.092 547.289 290.613 531.396L313.05 518.776C315.988 527.457 322.532 531.797 332.681 531.797C341.896 531.797 346.504 528.926 346.504 523.183C346.504 520.512 344.701 518.375 341.095 516.773C337.623 515.037 333.349 513.501 328.274 512.165C323.199 510.83 318.124 509.16 313.05 507.157C307.975 505.154 303.634 502.016 300.029 497.742C296.556 493.335 294.82 487.859 294.82 481.315C294.82 471.433 298.426 463.687 305.638 458.078C312.983 452.335 322.064 449.464 332.882 449.464C341.028 449.464 348.44 451.334 355.118 455.073C361.795 458.679 367.07 463.887 370.943 470.698L348.908 482.718C345.702 475.907 340.36 472.501 332.882 472.501C329.543 472.501 326.738 473.236 324.468 474.705C322.331 476.174 321.263 478.177 321.263 480.714Z" fill="#3130DF"/>
<path d="M448.933 477.105H426.296V518.773C426.296 522.245 427.164 524.783 428.901 526.385C430.637 527.988 433.174 528.923 436.513 529.19C439.852 529.323 443.992 529.257 448.933 528.989V552.427C431.171 554.431 418.617 552.761 411.272 547.419C404.06 542.077 400.455 532.529 400.455 518.773V477.105H383.026V452.265H400.455V432.633L426.296 422.816V452.265H448.933V477.105Z" fill="#3130DF"/>
<path d="M549.36 540.01C539.077 550.16 526.523 555.235 511.699 555.235C496.875 555.235 484.321 550.16 474.038 540.01C463.888 529.727 458.813 517.173 458.813 502.349C458.813 487.525 463.888 475.039 474.038 464.889C484.321 454.606 496.875 449.464 511.699 449.464C526.523 449.464 539.077 454.606 549.36 464.889C559.643 475.039 564.785 487.525 564.785 502.349C564.785 517.173 559.643 529.727 549.36 540.01ZM492.268 522.182C497.476 527.39 503.953 529.994 511.699 529.994C519.445 529.994 525.922 527.39 531.131 522.182C536.339 516.973 538.943 510.362 538.943 502.349C538.943 494.337 536.339 487.726 531.131 482.517C525.922 477.309 519.445 474.705 511.699 474.705C503.953 474.705 497.476 477.309 492.268 482.517C487.193 487.726 484.655 494.337 484.655 502.349C484.655 510.362 487.193 516.973 492.268 522.182Z" fill="#3130DF"/>
<path d="M606.925 466.493C616.14 452.264 624.175 452.27 637.374 452.27V481.116C629.495 480.181 622.417 481.784 616.14 485.924C609.996 490.064 606.925 496.942 606.925 506.557V552.431H581.083V462.285L606.925 452.269V466.493Z" fill="#3130DF"/>
<path d="M752.874 452.263L701.004 597.498H671.853L689.28 548.704L648.432 452.263H676.677L701.141 515.492L723.723 452.263H752.874Z" fill="#3130DF"/>
<path d="M768.74 550.027C765.402 553.365 761.395 555.035 756.721 555.035C752.047 555.035 748.04 553.365 744.701 550.027C741.363 546.688 739.693 542.681 739.693 538.007C739.693 533.333 741.363 529.326 744.701 525.988C748.04 522.649 752.047 520.979 756.721 520.979C761.395 520.979 765.402 522.649 768.74 525.988C772.079 529.326 773.749 533.333 773.749 538.007C773.749 542.681 772.079 546.688 768.74 550.027Z" fill="#3130DF"/>
<path d="M865.945 452.264H891.787V552.426H865.945V540.607C858.199 550.356 847.315 555.231 833.292 555.231C819.937 555.231 808.452 550.156 798.836 540.006C789.354 529.723 784.613 517.169 784.613 502.345C784.613 487.521 789.354 475.034 798.836 464.885C808.452 454.601 819.937 449.46 833.292 449.46C847.315 449.46 858.199 454.334 865.945 464.083V452.264ZM818.268 522.778C823.476 527.987 830.087 530.591 838.1 530.591C846.113 530.591 852.724 527.987 857.932 522.778C863.274 517.436 865.945 510.625 865.945 502.345C865.945 494.065 863.274 487.321 857.932 482.113C852.724 476.771 846.113 474.1 838.1 474.1C830.087 474.1 823.476 476.771 818.268 482.113C813.059 487.321 810.455 494.065 810.455 502.345C810.455 510.625 813.059 517.436 818.268 522.778Z" fill="#AEA9FF"/>
<path d="M919.973 481.109C915.7 481.109 911.96 479.574 908.755 476.502C905.683 473.297 904.148 469.557 904.148 465.284C904.148 461.01 905.683 457.271 908.755 454.066C911.96 450.86 915.7 449.258 919.973 449.258C924.38 449.258 928.12 450.86 931.191 454.066C934.397 457.271 935.999 461.01 935.999 465.284C935.999 469.557 934.397 473.297 931.191 476.502C928.12 479.574 924.38 481.109 919.973 481.109ZM907.152 552.426V494.332H932.994V552.426H907.152Z" fill="#AEA9FF"/>
<rect x="109.366" y="545.587" width="144.234" height="21.635" rx="10.8175" transform="rotate(-45 109.366 545.587)" fill="#3130DF"/>
<path d="M84.363 531.605C80.1385 527.381 80.1385 520.531 84.363 516.307L119.523 481.147C123.747 476.923 130.597 476.923 134.821 481.147V481.147C139.046 485.372 139.046 492.221 134.821 496.445L99.6613 531.605C95.4368 535.83 88.5875 535.83 84.363 531.605V531.605Z" fill="#F9A712"/>
<path d="M150.121 465.849C145.896 461.625 145.896 454.776 150.121 450.551V450.551C154.345 446.327 161.195 446.327 165.419 450.551V450.551C169.644 454.776 169.644 461.625 165.419 465.849V465.849C161.195 470.074 154.345 470.074 150.121 465.849V465.849Z" fill="#AF5FFF"/>
<path d="M170.735 553.577C166.511 549.352 166.511 542.503 170.735 538.279L176.684 532.329C180.909 528.105 187.758 528.105 191.983 532.329V532.329C196.207 536.554 196.207 543.403 191.983 547.628L186.033 553.577C181.809 557.801 174.96 557.801 170.735 553.577V553.577Z" fill="#F0516C"/>
<path d="M207.282 517.03C203.057 512.805 203.057 505.956 207.282 501.732L240.696 468.317C244.921 464.093 251.77 464.093 255.995 468.317V468.317C260.219 472.542 260.219 479.391 255.995 483.616L222.58 517.03C218.356 521.254 211.506 521.254 207.282 517.03V517.03Z" fill="#5FA8FF"/>
</svg>
