<svg width="1500" height="1500" viewBox="0 0 1500 1500" fill="none" xmlns="http://www.w3.org/2000/svg">
<rect width="1500" height="1500" fill="black"/>
<rect x="394.773" y="1016.27" width="841.92" height="126.288" rx="63.144" transform="rotate(-45 394.773 1016.27)" fill="#5857ED"/>
<path d="M248.83 934.655C224.171 909.996 224.171 870.016 248.83 845.356L454.065 640.121C478.724 615.462 518.705 615.462 543.364 640.121V640.121C568.023 664.781 568.023 704.761 543.364 729.42L338.129 934.655C313.47 959.315 273.489 959.315 248.83 934.655V934.655Z" fill="#F9A712"/>
<path d="M632.672 550.825C608.013 526.166 608.013 486.185 632.672 461.526V461.526C657.332 436.867 697.312 436.867 721.971 461.526V461.526C746.631 486.185 746.631 526.166 721.971 550.825V550.825C697.312 575.485 657.332 575.485 632.672 550.825V550.825Z" fill="#AF5FFF"/>
<path d="M753 1062.92C728.341 1038.26 728.341 998.275 753 973.616L787.728 938.889C812.387 914.229 852.367 914.229 877.027 938.889V938.889C901.686 963.548 901.686 1003.53 877.027 1028.19L842.299 1062.92C817.64 1087.57 777.659 1087.57 753 1062.92V1062.92Z" fill="#F0516C"/>
<path d="M966.331 849.582C941.672 824.923 941.672 784.942 966.331 760.283L1161.38 565.237C1186.04 540.578 1226.02 540.578 1250.68 565.237V565.237C1275.34 589.896 1275.34 629.877 1250.68 654.536L1055.63 849.582C1030.97 874.241 990.99 874.241 966.331 849.582V849.582Z" fill="#5FA8FF"/>
</svg>
