<svg width="1500" height="1500" viewBox="0 0 1500 1500" fill="none" xmlns="http://www.w3.org/2000/svg">
<rect x="394.773" y="1016.27" width="841.92" height="126.288" rx="63.144" transform="rotate(-45 394.773 1016.27)" fill="#3130DF"/>
<path d="M248.83 934.655C224.171 909.996 224.171 870.016 248.83 845.356L454.065 640.121C478.724 615.462 518.705 615.462 543.364 640.121V640.121C568.023 664.781 568.023 704.761 543.364 729.42L338.129 934.655C313.47 959.315 273.489 959.315 248.83 934.655V934.655Z" fill="#F9A712"/>
<path d="M632.672 550.825C608.013 526.166 608.013 486.185 632.672 461.526V461.526C657.332 436.867 697.312 436.867 721.971 461.526V461.526C746.631 486.185 746.631 526.166 721.971 550.825V550.825C697.312 575.485 657.332 575.485 632.672 550.825V550.825Z" fill="#AF5FFF"/>
<path d="M753 1062.91C728.341 1038.25 728.341 998.273 753 973.614L787.728 938.887C812.387 914.227 852.367 914.227 877.027 938.887V938.887C901.686 963.546 901.686 1003.53 877.027 1028.19L842.299 1062.91C817.64 1087.57 777.659 1087.57 753 1062.91V1062.91Z" fill="#F0516C"/>
<path d="M966.331 849.581C941.672 824.922 941.672 784.941 966.331 760.282L1161.38 565.236C1186.04 540.577 1226.02 540.577 1250.68 565.236V565.236C1275.34 589.895 1275.34 629.876 1250.68 654.535L1055.63 849.581C1030.97 874.24 990.99 874.24 966.331 849.581V849.581Z" fill="#5FA8FF"/>
</svg>
