<svg width="1500" height="1500" viewBox="0 0 1500 1500" fill="none" xmlns="http://www.w3.org/2000/svg">
<path d="M505.404 723.715C505.404 727.363 507.775 730.372 512.517 732.743C517.442 734.932 523.369 736.938 530.3 738.762C537.231 740.404 544.161 742.592 551.092 745.328C558.023 747.881 563.859 752.259 568.601 758.46C573.525 764.661 575.988 772.412 575.988 781.714C575.988 795.758 570.699 806.61 560.12 814.27C549.724 821.748 536.684 825.487 520.998 825.487C492.911 825.487 473.76 814.635 463.547 792.931L494.188 775.695C498.2 787.55 507.137 793.478 520.998 793.478C533.583 793.478 539.875 789.557 539.875 781.714C539.875 778.066 537.413 775.148 532.489 772.96C527.747 770.589 521.91 768.491 514.98 766.667C508.049 764.843 501.118 762.564 494.188 759.828C487.257 757.092 481.329 752.806 476.405 746.97C471.663 740.951 469.292 733.473 469.292 724.536C469.292 711.04 474.216 700.461 484.065 692.801C494.096 684.958 506.499 681.037 521.272 681.037C532.398 681.037 542.52 683.591 551.639 688.697C560.758 693.622 567.963 700.735 573.252 710.036L543.158 726.451C538.781 717.149 531.486 712.499 521.272 712.499C516.712 712.499 512.882 713.502 509.782 715.508C506.863 717.514 505.404 720.25 505.404 723.715Z" fill="#3130DF"/>
<path d="M679.76 718.786H648.846V775.69C648.846 780.432 650.031 783.898 652.402 786.086C654.773 788.275 658.239 789.552 662.798 789.916C667.358 790.099 673.012 790.008 679.76 789.643V821.652C655.503 824.387 638.359 822.108 628.328 814.812C618.479 807.517 613.554 794.476 613.554 775.69V718.786H589.753V684.862H613.554V658.051L648.846 644.645V684.862H679.76V718.786Z" fill="#3130DF"/>
<path d="M816.911 804.695C802.867 818.556 785.723 825.487 765.478 825.487C745.233 825.487 728.089 818.556 714.045 804.695C700.184 790.651 693.253 773.507 693.253 753.262C693.253 733.017 700.184 715.964 714.045 702.103C728.089 688.059 745.233 681.037 765.478 681.037C785.723 681.037 802.867 688.059 816.911 702.103C830.955 715.964 837.977 733.017 837.977 753.262C837.977 773.507 830.955 790.651 816.911 804.695ZM738.941 780.346C746.054 787.459 754.9 791.016 765.478 791.016C776.057 791.016 784.902 787.459 792.015 780.346C799.128 773.233 802.685 764.205 802.685 753.262C802.685 742.319 799.128 733.291 792.015 726.178C784.902 719.065 776.057 715.508 765.478 715.508C754.9 715.508 746.054 719.065 738.941 726.178C732.01 733.291 728.545 742.319 728.545 753.262C728.545 764.205 732.01 773.233 738.941 780.346Z" fill="#3130DF"/>
<path d="M895.527 704.293C908.112 684.861 919.085 684.869 937.111 684.869V724.264C926.35 722.987 916.684 725.176 908.112 730.83C899.722 736.484 895.527 745.877 895.527 759.008V821.657H860.235V698.546L895.527 684.867V704.293Z" fill="#3130DF"/>
<path d="M1094.85 684.859L1024.01 883.204H984.198L1008 816.567L952.212 684.859H990.786L1024.2 771.21L1055.04 684.859H1094.85Z" fill="#3130DF"/>
<path d="M1116.51 818.372C1111.95 822.932 1106.48 825.212 1100.1 825.212C1093.72 825.212 1088.24 822.932 1083.69 818.372C1079.13 813.812 1076.85 808.341 1076.85 801.957C1076.85 795.574 1079.13 790.102 1083.69 785.543C1088.24 780.983 1093.72 778.703 1100.1 778.703C1106.48 778.703 1111.95 780.983 1116.51 785.543C1121.07 790.102 1123.35 795.574 1123.35 801.957C1123.35 808.341 1121.07 813.812 1116.51 818.372Z" fill="#3130DF"/>
<path d="M1249.27 684.862H1284.56V821.651H1249.27V805.51C1238.69 818.824 1223.82 825.481 1204.67 825.481C1186.43 825.481 1170.75 818.55 1157.62 804.689C1144.67 790.645 1138.19 773.501 1138.19 753.256C1138.19 733.012 1144.67 715.958 1157.62 702.097C1170.75 688.053 1186.43 681.032 1204.67 681.032C1223.82 681.032 1238.69 687.689 1249.27 701.003V684.862ZM1184.15 781.161C1191.27 788.274 1200.29 791.831 1211.24 791.831C1222.18 791.831 1231.21 788.274 1238.32 781.161C1245.62 773.866 1249.27 764.564 1249.27 753.256C1249.27 741.948 1245.62 732.738 1238.32 725.625C1231.21 718.329 1222.18 714.682 1211.24 714.682C1200.29 714.682 1191.27 718.329 1184.15 725.625C1177.04 732.738 1173.48 741.948 1173.48 753.256C1173.48 764.564 1177.04 773.866 1184.15 781.161Z" fill="#AEA9FF"/>
<path d="M1323.05 724.255C1317.21 724.255 1312.11 722.157 1307.73 717.963C1303.54 713.585 1301.44 708.478 1301.44 702.642C1301.44 696.806 1303.54 691.699 1307.73 687.322C1312.11 682.944 1317.21 680.756 1323.05 680.756C1329.07 680.756 1334.18 682.944 1338.37 687.322C1342.75 691.699 1344.94 696.806 1344.94 702.642C1344.94 708.478 1342.75 713.585 1338.37 717.963C1334.18 722.157 1329.07 724.255 1323.05 724.255ZM1305.54 821.65V742.313H1340.83V821.65H1305.54Z" fill="#AEA9FF"/>
<rect x="216.02" y="812.311" width="196.977" height="29.5465" rx="14.7732" transform="rotate(-45 216.02 812.311)" fill="#3130DF"/>
<path d="M181.874 793.216C176.105 787.446 176.105 778.093 181.874 772.323L229.891 724.306C235.66 718.537 245.014 718.537 250.784 724.306V724.306C256.553 730.076 256.553 739.429 250.784 745.199L202.767 793.216C196.997 798.985 187.643 798.985 181.874 793.216V793.216Z" fill="#F9A712"/>
<path d="M271.678 703.415C265.909 697.646 265.909 688.292 271.678 682.522V682.522C277.448 676.753 286.801 676.753 292.571 682.522V682.522C298.34 688.292 298.34 697.646 292.571 703.415V703.415C286.801 709.184 277.448 709.184 271.678 703.415V703.415Z" fill="#AF5FFF"/>
<path d="M299.831 823.224C294.061 817.454 294.061 808.1 299.831 802.331L307.955 794.206C313.725 788.437 323.079 788.437 328.848 794.206V794.206C334.617 799.976 334.617 809.329 328.848 815.099L320.723 823.224C314.954 828.993 305.6 828.993 299.831 823.224V823.224Z" fill="#F0516C"/>
<path d="M349.742 773.311C343.972 767.542 343.972 758.188 349.742 752.419L395.375 706.786C401.144 701.016 410.498 701.016 416.267 706.786V706.786C422.037 712.555 422.037 721.909 416.267 727.678L370.634 773.311C364.865 779.081 355.511 779.081 349.742 773.311V773.311Z" fill="#5FA8FF"/>
</svg>
