<svg width="250" height="250" viewBox="0 0 250 250" fill="none" xmlns="http://www.w3.org/2000/svg">
<g clip-path="url(#clip0)">
<rect width="250" height="250" fill="black"/>
<rect x="53.3657" y="178.976" width="170.629" height="25.5943" rx="12.7972" transform="rotate(-45 53.3657 178.976)" fill="#5857ED"/>
<path d="M23.7877 162.435C18.7901 157.437 18.7901 149.334 23.7877 144.337L65.382 102.743C70.3796 97.7449 78.4823 97.7449 83.4799 102.743V102.743C88.4775 107.74 88.4775 115.843 83.4799 120.84L41.8857 162.435C36.8881 167.432 28.7853 167.432 23.7877 162.435V162.435Z" fill="#F9A712"/>
<path d="M101.58 84.6447C96.5821 79.6471 96.5821 71.5443 101.58 66.5467V66.5467C106.577 61.5491 114.68 61.5491 119.678 66.5467V66.5467C124.675 71.5443 124.675 79.6471 119.678 84.6447V84.6447C114.68 89.6423 106.577 89.6423 101.58 84.6447V84.6447Z" fill="#AF5FFF"/>
<path d="M125.966 188.428C120.969 183.43 120.969 175.328 125.966 170.33L133.005 163.292C138.002 158.294 146.105 158.294 151.102 163.292V163.292C156.1 168.289 156.1 176.392 151.102 181.39L144.064 188.428C139.067 193.425 130.964 193.425 125.966 188.428V188.428Z" fill="#F0516C"/>
<path d="M169.201 145.192C164.204 140.194 164.204 132.091 169.201 127.094L208.731 87.5644C213.728 82.5668 221.831 82.5668 226.828 87.5644V87.5644C231.826 92.562 231.826 100.665 226.828 105.662L187.299 145.192C182.302 150.189 174.199 150.189 169.201 145.192V145.192Z" fill="#5FA8FF"/>
</g>
<defs>
<clipPath id="clip0">
<rect width="250" height="250" fill="white"/>
</clipPath>
</defs>
</svg>
