<svg width="250" height="250" viewBox="0 0 250 250" fill="none" xmlns="http://www.w3.org/2000/svg">
<rect width="250" height="250" fill="white"/>
<path d="M81.43 120.6C81.43 121.258 81.8581 121.802 82.7142 122.23C83.6032 122.625 84.6734 122.987 85.9247 123.316C87.1759 123.613 88.4272 124.008 89.6784 124.502C90.9297 124.963 91.9834 125.753 92.8395 126.872C93.7286 127.992 94.1731 129.391 94.1731 131.071C94.1731 133.606 93.2182 135.565 91.3084 136.948C89.4315 138.298 87.0771 138.973 84.2453 138.973C79.1744 138.973 75.717 137.014 73.873 133.096L79.4049 129.984C80.1293 132.124 81.7428 133.195 84.2453 133.195C86.5174 133.195 87.6534 132.487 87.6534 131.071C87.6534 130.412 87.2088 129.885 86.3198 129.49C85.4637 129.062 84.41 128.683 83.1587 128.354C81.9075 128.025 80.6562 127.613 79.4049 127.119C78.1537 126.625 77.0835 125.852 76.1945 124.798C75.3383 123.711 74.9103 122.361 74.9103 120.748C74.9103 118.311 75.7993 116.401 77.5774 115.018C79.3885 113.602 81.6276 112.895 84.2947 112.895C86.3033 112.895 88.1308 113.356 89.7772 114.278C91.4236 115.167 92.7243 116.451 93.6792 118.13L88.2461 121.094C87.4558 119.414 86.1387 118.575 84.2947 118.575C83.4715 118.575 82.78 118.756 82.2203 119.118C81.6934 119.48 81.43 119.974 81.43 120.6Z" fill="#3130DF"/>
<path d="M112.908 119.71H107.327V129.983C107.327 130.839 107.541 131.465 107.969 131.86C108.397 132.255 109.023 132.486 109.846 132.552C110.669 132.585 111.69 132.568 112.908 132.502V138.281C108.529 138.775 105.433 138.363 103.622 137.046C101.844 135.729 100.955 133.375 100.955 129.983V119.71H96.6582V113.585H100.955V108.745L107.327 106.324V113.585H112.908V119.71Z" fill="#3130DF"/>
<path d="M137.67 135.22C135.134 137.722 132.039 138.973 128.384 138.973C124.729 138.973 121.634 137.722 119.099 135.22C116.596 132.684 115.345 129.589 115.345 125.934C115.345 122.279 116.596 119.2 119.099 116.698C121.634 114.162 124.729 112.895 128.384 112.895C132.039 112.895 135.134 114.162 137.67 116.698C140.205 119.2 141.473 122.279 141.473 125.934C141.473 129.589 140.205 132.684 137.67 135.22ZM123.593 130.824C124.877 132.108 126.474 132.75 128.384 132.75C130.294 132.75 131.891 132.108 133.175 130.824C134.459 129.54 135.101 127.91 135.101 125.934C135.101 123.958 134.459 122.328 133.175 121.044C131.891 119.76 130.294 119.118 128.384 119.118C126.474 119.118 124.877 119.76 123.593 121.044C122.342 122.328 121.716 123.958 121.716 125.934C121.716 127.91 122.342 129.54 123.593 130.824Z" fill="#3130DF"/>
<path d="M151.863 117.092C154.135 113.584 156.116 113.585 159.37 113.585V120.698C157.428 120.467 155.682 120.862 154.135 121.883C152.62 122.904 151.863 124.6 151.863 126.97V138.281H145.491V116.055L151.863 113.585V117.092Z" fill="#3130DF"/>
<path d="M187.848 113.585L175.059 149.394H167.872L172.168 137.363L162.097 113.585H169.061L175.093 129.175L180.66 113.585H187.848Z" fill="#3130DF"/>
<path d="M191.76 137.689C190.937 138.512 189.949 138.924 188.797 138.924C187.644 138.924 186.657 138.512 185.833 137.689C185.01 136.866 184.599 135.878 184.599 134.726C184.599 133.573 185.01 132.585 185.833 131.762C186.657 130.939 187.644 130.527 188.797 130.527C189.949 130.527 190.937 130.939 191.76 131.762C192.584 132.585 192.995 133.573 192.995 134.726C192.995 135.878 192.584 136.866 191.76 137.689Z" fill="#3130DF"/>
<path d="M215.727 113.585H222.098V138.281H215.727V135.367C213.817 137.771 211.133 138.972 207.676 138.972C204.383 138.972 201.551 137.721 199.181 135.219C196.843 132.683 195.674 129.588 195.674 125.933C195.674 122.278 196.843 119.199 199.181 116.697C201.551 114.161 204.383 112.894 207.676 112.894C211.133 112.894 213.817 114.095 215.727 116.499V113.585ZM203.972 130.971C205.256 132.255 206.886 132.897 208.861 132.897C210.837 132.897 212.467 132.255 213.751 130.971C215.068 129.654 215.727 127.975 215.727 125.933C215.727 123.891 215.068 122.229 213.751 120.944C212.467 119.627 210.837 118.969 208.861 118.969C206.886 118.969 205.256 119.627 203.972 120.944C202.687 122.229 202.045 123.891 202.045 125.933C202.045 127.975 202.687 129.654 203.972 130.971Z" fill="#AEA9FF"/>
<path d="M229.048 120.697C227.994 120.697 227.072 120.318 226.282 119.561C225.525 118.771 225.146 117.849 225.146 116.795C225.146 115.741 225.525 114.819 226.282 114.029C227.072 113.239 227.994 112.844 229.048 112.844C230.135 112.844 231.057 113.239 231.814 114.029C232.604 114.819 232.999 115.741 232.999 116.795C232.999 117.849 232.604 118.771 231.814 119.561C231.057 120.318 230.135 120.697 229.048 120.697ZM225.887 138.281V123.957H232.259V138.281H225.887Z" fill="#AEA9FF"/>
<rect x="29.1865" y="136.596" width="35.5621" height="5.33432" rx="2.66716" transform="rotate(-45 29.1865 136.596)" fill="#3130DF"/>
<path d="M23.0207 133.148C21.9791 132.106 21.9791 130.417 23.0207 129.376L31.6897 120.707C32.7313 119.665 34.4201 119.665 35.4617 120.707V120.707C36.5033 121.748 36.5032 123.437 35.4617 124.479L26.7927 133.148C25.7511 134.189 24.0623 134.189 23.0207 133.148V133.148Z" fill="#F9A712"/>
<path d="M39.2346 116.936C38.193 115.894 38.193 114.205 39.2346 113.164V113.164C40.2762 112.122 41.9649 112.122 43.0065 113.164V113.164C44.0481 114.205 44.0481 115.894 43.0065 116.936V116.936C41.9649 117.977 40.2762 117.977 39.2346 116.936V116.936Z" fill="#AF5FFF"/>
<path d="M44.3176 138.565C43.276 137.523 43.276 135.834 44.3176 134.793L45.7845 133.326C46.8261 132.284 48.5148 132.284 49.5564 133.326V133.326C50.598 134.367 50.598 136.056 49.5564 137.098L48.0895 138.565C47.0479 139.606 45.3592 139.606 44.3176 138.565V138.565Z" fill="#F0516C"/>
<path d="M53.3283 129.554C52.2868 128.512 52.2868 126.824 53.3283 125.782L61.567 117.543C62.6086 116.502 64.2973 116.502 65.3389 117.543V117.543C66.3805 118.585 66.3805 120.274 65.3389 121.315L57.1003 129.554C56.0587 130.596 54.3699 130.596 53.3283 129.554V129.554Z" fill="#5FA8FF"/>
</svg>
