<svg width="50" height="50" viewBox="0 0 50 50" fill="none" xmlns="http://www.w3.org/2000/svg">
<rect width="50" height="50" fill="white"/>
<path d="M16.3903 24.2698C16.3903 24.3985 16.4739 24.5046 16.6412 24.5882C16.8149 24.6654 17.0239 24.7362 17.2683 24.8005C17.5128 24.8584 17.7572 24.9356 18.0016 25.0321C18.2461 25.1221 18.4519 25.2765 18.6192 25.4952C18.7928 25.7139 18.8797 25.9873 18.8797 26.3154C18.8797 26.8107 18.6931 27.1934 18.32 27.4636C17.9534 27.7273 17.4935 27.8592 16.9403 27.8592C15.9497 27.8592 15.2743 27.4764 14.9141 26.711L15.9947 26.1031C16.1362 26.5212 16.4514 26.7303 16.9403 26.7303C17.3841 26.7303 17.606 26.592 17.606 26.3154C17.606 26.1867 17.5192 26.0838 17.3455 26.0066C17.1783 25.923 16.9724 25.849 16.728 25.7847C16.4836 25.7204 16.2391 25.64 15.9947 25.5435C15.7503 25.447 15.5412 25.2958 15.3676 25.09C15.2003 24.8777 15.1167 24.614 15.1167 24.2988C15.1167 23.8228 15.2904 23.4497 15.6377 23.1795C15.9915 22.9029 16.4289 22.7646 16.9499 22.7646C17.3423 22.7646 17.6993 22.8547 18.0209 23.0348C18.3426 23.2085 18.5966 23.4594 18.7832 23.7874L17.7218 24.3663C17.5675 24.0383 17.3102 23.8742 16.9499 23.8742C16.7891 23.8742 16.654 23.9096 16.5447 23.9804C16.4418 24.0511 16.3903 24.1476 16.3903 24.2698Z" fill="#3130DF"/>
<path d="M22.5387 24.0953H21.4484V26.1022C21.4484 26.2695 21.4902 26.3917 21.5738 26.4689C21.6574 26.5461 21.7796 26.5911 21.9405 26.604C22.1013 26.6104 22.3007 26.6072 22.5387 26.5943V27.7232C21.6832 27.8197 21.0785 27.7393 20.7247 27.482C20.3774 27.2247 20.2037 26.7648 20.2037 26.1022V24.0953H19.3643V22.8989H20.2037V21.9533L21.4484 21.4805V22.8989H22.5387V24.0953Z" fill="#3130DF"/>
<path d="M27.3768 27.1259C26.8815 27.6147 26.2769 27.8592 25.5629 27.8592C24.8489 27.8592 24.2442 27.6147 23.7489 27.1259C23.2601 26.6306 23.0156 26.0259 23.0156 25.3119C23.0156 24.5979 23.2601 23.9965 23.7489 23.5076C24.2442 23.0123 24.8489 22.7646 25.5629 22.7646C26.2769 22.7646 26.8815 23.0123 27.3768 23.5076C27.8721 23.9965 28.1198 24.5979 28.1198 25.3119C28.1198 26.0259 27.8721 26.6306 27.3768 27.1259ZM24.627 26.2671C24.8778 26.518 25.1898 26.6434 25.5629 26.6434C25.936 26.6434 26.2479 26.518 26.4988 26.2671C26.7497 26.0163 26.8751 25.6978 26.8751 25.3119C26.8751 24.926 26.7497 24.6075 26.4988 24.3567C26.2479 24.1058 25.936 23.9804 25.5629 23.9804C25.1898 23.9804 24.8778 24.1058 24.627 24.3567C24.3825 24.6075 24.2603 24.926 24.2603 25.3119C24.2603 25.6978 24.3825 26.0163 24.627 26.2671Z" fill="#3130DF"/>
<path d="M30.149 23.5835C30.5928 22.8982 30.9798 22.8985 31.6156 22.8985V24.2879C31.2361 24.2429 30.8951 24.3201 30.5928 24.5195C30.2969 24.7189 30.149 25.0501 30.149 25.5133V27.7228H28.9043V23.3809L30.149 22.8984V23.5835Z" fill="#3130DF"/>
<path d="M37.1789 22.8984L34.6806 29.8937H33.2766L34.1159 27.5436L32.1484 22.8984H33.5089L34.6872 25.9439L35.7749 22.8984H37.1789Z" fill="#3130DF"/>
<path d="M37.943 27.608C37.7822 27.7689 37.5892 27.8493 37.3641 27.8493C37.1389 27.8493 36.946 27.7689 36.7852 27.608C36.6244 27.4472 36.5439 27.2543 36.5439 27.0291C36.5439 26.804 36.6244 26.611 36.7852 26.4502C36.946 26.2894 37.1389 26.209 37.3641 26.209C37.5892 26.209 37.7822 26.2894 37.943 26.4502C38.1038 26.611 38.1842 26.804 38.1842 27.0291C38.1842 27.2543 38.1038 27.4472 37.943 27.608Z" fill="#3130DF"/>
<path d="M42.6254 22.8987H43.8701V27.7231H42.6254V27.1538C42.2523 27.6234 41.728 27.8581 41.0526 27.8581C40.4094 27.8581 39.8562 27.6137 39.3931 27.1248C38.9364 26.6295 38.708 26.0249 38.708 25.3109C38.708 24.5969 38.9364 23.9954 39.3931 23.5066C39.8562 23.0113 40.4094 22.7636 41.0526 22.7636C41.728 22.7636 42.2523 22.9984 42.6254 23.468V22.8987ZM40.329 26.295C40.5799 26.5459 40.8983 26.6713 41.2842 26.6713C41.6702 26.6713 41.9886 26.5459 42.2394 26.295C42.4967 26.0378 42.6254 25.7097 42.6254 25.3109C42.6254 24.9121 42.4967 24.5872 42.2394 24.3364C41.9886 24.0791 41.6702 23.9504 41.2842 23.9504C40.8983 23.9504 40.5799 24.0791 40.329 24.3364C40.0781 24.5872 39.9527 24.9121 39.9527 25.3109C39.9527 25.7097 40.0781 26.0378 40.329 26.295Z" fill="#AEA9FF"/>
<path d="M45.2277 24.288C45.0218 24.288 44.8417 24.2141 44.6873 24.0661C44.5394 23.9117 44.4654 23.7316 44.4654 23.5258C44.4654 23.32 44.5394 23.1399 44.6873 22.9855C44.8417 22.8311 45.0218 22.7539 45.2277 22.7539C45.4399 22.7539 45.62 22.8311 45.768 22.9855C45.9224 23.1399 45.9996 23.32 45.9996 23.5258C45.9996 23.7316 45.9224 23.9117 45.768 24.0661C45.62 24.2141 45.4399 24.288 45.2277 24.288ZM44.6101 27.723V24.9249H45.8548V27.723H44.6101Z" fill="#AEA9FF"/>
<rect x="6.18652" y="27.3936" width="6.94705" height="1.04206" rx="0.521029" transform="rotate(-45 6.18652 27.3936)" fill="#3130DF"/>
<path d="M4.9817 26.72C4.77823 26.5165 4.77823 26.1866 4.9817 25.9831L6.67519 24.2897C6.87866 24.0862 7.20856 24.0862 7.41204 24.2897V24.2897C7.61551 24.4931 7.61551 24.823 7.41204 25.0265L5.71855 26.72C5.51508 26.9235 5.18518 26.9235 4.9817 26.72V26.72Z" fill="#F9A712"/>
<path d="M8.1487 23.553C7.94522 23.3495 7.94522 23.0196 8.1487 22.8161V22.8161C8.35217 22.6127 8.68207 22.6127 8.88554 22.8161V22.8161C9.08902 23.0196 9.08902 23.3495 8.88554 23.553V23.553C8.68207 23.7565 8.35217 23.7565 8.1487 23.553V23.553Z" fill="#AF5FFF"/>
<path d="M9.14284 27.7796C8.93936 27.5761 8.93936 27.2462 9.14284 27.0427L9.42939 26.7562C9.63286 26.5527 9.96276 26.5527 10.1662 26.7562V26.7562C10.3697 26.9596 10.3697 27.2895 10.1662 27.493L9.87968 27.7796C9.67621 27.983 9.34631 27.983 9.14284 27.7796V27.7796Z" fill="#F0516C"/>
<path d="M10.9016 26.0188C10.6982 25.8153 10.6982 25.4854 10.9016 25.282L12.511 23.6726C12.7145 23.4691 13.0444 23.4691 13.2479 23.6726V23.6726C13.4514 23.876 13.4514 24.2059 13.2479 24.4094L11.6385 26.0188C11.435 26.2223 11.1051 26.2223 10.9016 26.0188V26.0188Z" fill="#5FA8FF"/>
</svg>
