<svg width="50" height="50" viewBox="0 0 50 50" fill="none" xmlns="http://www.w3.org/2000/svg">
<g clip-path="url(#clip0)">
<rect width="50" height="50" fill="white"/>
<rect x="11.8916" y="34.8818" width="31.4482" height="4.71723" rx="2.35862" transform="rotate(-45 11.8916 34.8818)" fill="#3130DF"/>
<path d="M6.44025 31.8338C5.51916 30.9127 5.51916 29.4193 6.44025 28.4982L14.1064 20.8321C15.0275 19.911 16.5209 19.911 17.442 20.8321V20.8321C18.3631 21.7532 18.3631 23.2466 17.442 24.1677L9.77584 31.8338C8.85474 32.7549 7.36135 32.7549 6.44025 31.8338V31.8338Z" fill="#F9A712"/>
<path d="M20.7781 17.4959C19.857 16.5748 19.857 15.0814 20.7781 14.1603V14.1603C21.6992 13.2392 23.1926 13.2392 24.1137 14.1603V14.1603C25.0348 15.0814 25.0348 16.5748 24.1137 17.4959V17.4959C23.1926 18.417 21.6992 18.417 20.7781 17.4959V17.4959Z" fill="#AF5FFF"/>
<path d="M25.2728 36.6238C24.3517 35.7028 24.3517 34.2094 25.2728 33.2883L26.5699 31.9911C27.491 31.07 28.9844 31.07 29.9055 31.9911V31.9911C30.8266 32.9122 30.8266 34.4056 29.9055 35.3267L28.6084 36.6238C27.6873 37.5449 26.1939 37.5449 25.2728 36.6238V36.6238Z" fill="#F0516C"/>
<path d="M33.2415 28.6551C32.3204 27.734 32.3204 26.2406 33.2415 25.3195L40.5271 18.034C41.4482 17.1129 42.9416 17.1129 43.8627 18.034V18.034C44.7838 18.9551 44.7838 20.4485 43.8627 21.3696L36.5771 28.6551C35.656 29.5762 34.1626 29.5762 33.2415 28.6551V28.6551Z" fill="#5FA8FF"/>
</g>
<defs>
<clipPath id="clip0">
<rect width="50" height="50" fill="white"/>
</clipPath>
</defs>
</svg>
