<svg width="500" height="500" viewBox="0 0 500 500" fill="none" xmlns="http://www.w3.org/2000/svg">
<rect x="126.945" y="342.473" width="292.328" height="43.8492" rx="21.9246" transform="rotate(-45 126.945 342.473)" fill="#3130DF"/>
<path d="M76.2713 314.134C67.7093 305.572 67.7092 291.69 76.2713 283.128L147.532 211.867C156.094 203.305 169.976 203.305 178.538 211.867V211.867C187.1 220.429 187.1 234.311 178.538 242.873L107.277 314.134C98.7153 322.696 84.8334 322.696 76.2713 314.134V314.134Z" fill="#F9A712"/>
<path d="M209.547 180.862C200.985 172.3 200.985 158.418 209.547 149.856V149.856C218.11 141.294 231.991 141.294 240.554 149.856V149.856C249.116 158.418 249.116 172.3 240.554 180.862V180.862C231.991 189.424 218.11 189.424 209.547 180.862V180.862Z" fill="#AF5FFF"/>
<path d="M251.327 358.668C242.765 350.106 242.765 336.224 251.327 327.662L263.385 315.604C271.947 307.042 285.829 307.042 294.391 315.604V315.604C302.953 324.166 302.953 338.048 294.391 346.61L282.333 358.668C273.771 367.23 259.889 367.23 251.327 358.668V358.668Z" fill="#F0516C"/>
<path d="M325.399 284.595C316.837 276.033 316.837 262.151 325.399 253.589L393.122 185.866C401.684 177.304 415.566 177.304 424.128 185.866V185.866C432.69 194.428 432.69 208.31 424.128 216.872L356.405 284.595C347.843 293.157 333.961 293.157 325.399 284.595V284.595Z" fill="#5FA8FF"/>
</svg>
