<svg width="500" height="500" viewBox="0 0 500 500" fill="none" xmlns="http://www.w3.org/2000/svg">
<rect width="500" height="500" fill="black"/>
<path d="M165.551 240.867C165.551 242.129 166.371 243.17 168.011 243.99C169.715 244.747 171.766 245.441 174.164 246.072C176.561 246.64 178.959 247.398 181.357 248.344C183.755 249.227 185.774 250.742 187.414 252.887C189.118 255.033 189.97 257.714 189.97 260.932C189.97 265.791 188.14 269.545 184.48 272.195C180.884 274.783 176.372 276.076 170.946 276.076C161.228 276.076 154.603 272.322 151.069 264.813L161.67 258.85C163.058 262.951 166.15 265.002 170.946 265.002C175.299 265.002 177.476 263.646 177.476 260.932C177.476 259.67 176.624 258.661 174.921 257.904C173.28 257.083 171.261 256.358 168.863 255.727C166.466 255.096 164.068 254.307 161.67 253.36C159.272 252.414 157.222 250.931 155.518 248.912C153.877 246.83 153.057 244.243 153.057 241.151C153.057 236.481 154.761 232.822 158.168 230.171C161.638 227.458 165.929 226.102 171.04 226.102C174.889 226.102 178.391 226.985 181.546 228.752C184.701 230.455 187.194 232.916 189.023 236.134L178.612 241.813C177.098 238.595 174.574 236.986 171.04 236.986C169.463 236.986 168.138 237.333 167.065 238.027C166.055 238.721 165.551 239.668 165.551 240.867Z" fill="#5857ED"/>
<path d="M225.872 239.162H215.177V258.849C215.177 260.49 215.587 261.688 216.407 262.446C217.227 263.203 218.426 263.645 220.004 263.771C221.581 263.834 223.537 263.802 225.872 263.676V274.75C217.48 275.696 211.548 274.908 208.078 272.384C204.671 269.86 202.967 265.348 202.967 258.849V239.162H194.732V227.426H202.967V218.15L215.177 213.512V227.426H225.872V239.162Z" fill="#5857ED"/>
<path d="M273.321 268.883C268.463 273.678 262.531 276.076 255.527 276.076C248.523 276.076 242.592 273.678 237.733 268.883C232.938 264.024 230.54 258.093 230.54 251.089C230.54 244.085 232.938 238.185 237.733 233.39C242.592 228.531 248.523 226.102 255.527 226.102C262.531 226.102 268.463 228.531 273.321 233.39C278.18 238.185 280.609 244.085 280.609 251.089C280.609 258.093 278.18 264.024 273.321 268.883ZM246.346 260.459C248.807 262.92 251.868 264.15 255.527 264.15C259.187 264.15 262.247 262.92 264.708 260.459C267.169 257.998 268.4 254.875 268.4 251.089C268.4 247.303 267.169 244.179 264.708 241.719C262.247 239.258 259.187 238.027 255.527 238.027C251.868 238.027 248.807 239.258 246.346 241.719C243.949 244.179 242.75 247.303 242.75 251.089C242.75 254.875 243.949 257.998 246.346 260.459Z" fill="#5857ED"/>
<path d="M300.519 234.147C304.873 227.424 308.67 227.427 314.906 227.427V241.057C311.183 240.615 307.839 241.372 304.873 243.328C301.971 245.284 300.519 248.534 300.519 253.077V274.751H288.31V232.159L300.519 227.427V234.147Z" fill="#5857ED"/>
<path d="M369.477 227.425L344.97 296.045H331.197L339.431 272.991L320.131 227.425H333.476L345.035 257.299L355.704 227.425H369.477Z" fill="#5857ED"/>
<path d="M376.974 273.616C375.397 275.193 373.504 275.982 371.295 275.982C369.087 275.982 367.194 275.193 365.616 273.616C364.039 272.038 363.25 270.145 363.25 267.937C363.25 265.728 364.039 263.835 365.616 262.258C367.194 260.68 369.087 259.892 371.295 259.892C373.504 259.892 375.397 260.68 376.974 262.258C378.552 263.835 379.34 265.728 379.34 267.937C379.34 270.145 378.552 272.038 376.974 273.616Z" fill="#5857ED"/>
<path d="M422.901 227.425H435.111V274.75H422.901V269.165C419.241 273.772 414.099 276.075 407.473 276.075C401.163 276.075 395.737 273.677 391.194 268.881C386.714 264.023 384.474 258.092 384.474 251.088C384.474 244.084 386.714 238.184 391.194 233.388C395.737 228.53 401.163 226.1 407.473 226.1C414.099 226.1 419.241 228.403 422.901 233.01V227.425ZM400.375 260.742C402.835 263.203 405.959 264.433 409.745 264.433C413.531 264.433 416.654 263.203 419.115 260.742C421.639 258.218 422.901 255 422.901 251.088C422.901 247.175 421.639 243.989 419.115 241.528C416.654 239.004 413.531 237.742 409.745 237.742C405.959 237.742 402.835 239.004 400.375 241.528C397.914 243.989 396.683 247.175 396.683 251.088C396.683 255 397.914 258.218 400.375 260.742Z" fill="#AEA9FF"/>
<path d="M448.428 241.054C446.409 241.054 444.642 240.328 443.128 238.877C441.677 237.363 440.951 235.596 440.951 233.577C440.951 231.558 441.677 229.791 443.128 228.276C444.642 226.762 446.409 226.005 448.428 226.005C450.51 226.005 452.277 226.762 453.728 228.276C455.243 229.791 456 231.558 456 233.577C456 235.596 455.243 237.363 453.728 238.877C452.277 240.328 450.51 241.054 448.428 241.054ZM442.371 274.75V247.301H454.58V274.75H442.371Z" fill="#AEA9FF"/>
<rect x="65.4346" y="271.52" width="68.1471" height="10.2221" rx="5.11103" transform="rotate(-45 65.4346 271.52)" fill="#5857ED"/>
<path d="M53.6209 264.913C51.6249 262.917 51.6249 259.681 53.6209 257.685L70.2331 241.073C72.2291 239.077 75.4652 239.077 77.4612 241.073V241.073C79.4572 243.069 79.4572 246.305 77.4612 248.301L60.849 264.913C58.853 266.909 55.6169 266.909 53.6209 264.913V264.913Z" fill="#F9A712"/>
<path d="M84.6902 233.845C82.6942 231.85 82.6942 228.613 84.6902 226.617V226.617C86.6862 224.621 89.9223 224.621 91.9183 226.617V226.617C93.9143 228.613 93.9143 231.85 91.9183 233.845V233.845C89.9223 235.841 86.6862 235.841 84.6902 233.845V233.845Z" fill="#AF5FFF"/>
<path d="M94.4305 275.293C92.4345 273.297 92.4345 270.061 94.4304 268.065L97.2414 265.254C99.2374 263.258 102.473 263.258 104.469 265.254V265.254C106.465 267.25 106.465 270.486 104.469 272.482L101.659 275.293C99.6626 277.289 96.4264 277.289 94.4305 275.293V275.293Z" fill="#F0516C"/>
<path d="M111.698 258.026C109.702 256.03 109.702 252.794 111.698 250.798L127.486 235.011C129.482 233.015 132.718 233.015 134.714 235.011V235.011C136.71 237.007 136.71 240.243 134.714 242.239L118.926 258.026C116.93 260.022 113.694 260.022 111.698 258.026V258.026Z" fill="#5FA8FF"/>
</svg>
