<svg width="1000" height="1000" viewBox="0 0 1000 1000" fill="none" xmlns="http://www.w3.org/2000/svg">
<path d="M594.016 242.036C607.435 218.805 637.155 210.846 660.398 224.258C683.641 237.67 691.604 267.375 678.185 290.605L408.212 757.966C394.792 781.196 365.072 789.156 341.829 775.744C318.586 762.331 310.623 732.627 324.042 709.396L594.016 242.036Z" fill="#3130DF"/>
<path d="M263.696 425.362C277.115 402.132 306.835 394.172 330.078 407.585C353.321 420.997 361.284 450.701 347.865 473.932L239.876 660.876C226.456 684.106 196.736 692.066 173.493 678.654C150.25 665.242 142.287 635.537 155.706 612.306L263.696 425.362Z" fill="#F9A712"/>
<path d="M360.89 257.052C374.309 233.822 404.029 225.862 427.272 239.274C450.515 252.687 458.478 282.391 445.059 305.622C431.64 328.852 401.92 336.812 378.677 323.399C355.434 309.987 347.471 280.283 360.89 257.052Z" fill="#AF5FFF"/>
<path d="M762.348 339.16C775.767 315.929 805.487 307.97 828.73 321.382C851.973 334.794 859.936 364.499 846.517 387.729L760.126 537.285C746.706 560.515 716.986 568.474 693.743 555.062C670.5 541.65 662.537 511.946 675.956 488.715L762.348 339.16Z" fill="#5FA8FF"/>
<path d="M578.777 656.993C592.196 633.762 621.916 625.803 645.159 639.215C668.402 652.627 676.365 682.332 662.946 705.562L641.348 742.951C627.929 766.181 598.209 774.141 574.966 760.729C551.723 747.317 543.76 717.612 557.179 694.381L578.777 656.993Z" fill="#F0516C"/>
</svg>
