<svg width="1000" height="1000" viewBox="0 0 1000 1000" fill="none" xmlns="http://www.w3.org/2000/svg">
<path d="M363.5 481C363.5 483.222 364.944 485.056 367.833 486.5C370.833 487.833 374.444 489.056 378.667 490.167C382.889 491.167 387.111 492.5 391.333 494.167C395.556 495.722 399.111 498.389 402 502.167C405 505.944 406.5 510.667 406.5 516.333C406.5 524.889 403.278 531.5 396.833 536.167C390.5 540.722 382.556 543 373 543C355.889 543 344.222 536.389 338 523.167L356.667 512.667C359.111 519.889 364.556 523.5 373 523.5C380.667 523.5 384.5 521.111 384.5 516.333C384.5 514.111 383 512.333 380 511C377.111 509.556 373.556 508.278 369.333 507.167C365.111 506.056 360.889 504.667 356.667 503C352.444 501.333 348.833 498.722 345.833 495.167C342.944 491.5 341.5 486.944 341.5 481.5C341.5 473.278 344.5 466.833 350.5 462.167C356.611 457.389 364.167 455 373.167 455C379.944 455 386.111 456.556 391.667 459.667C397.222 462.667 401.611 467 404.833 472.667L386.5 482.667C383.833 477 379.389 474.167 373.167 474.167C370.389 474.167 368.056 474.778 366.167 476C364.389 477.222 363.5 478.889 363.5 481Z" fill="#3130DF"/>
<path d="M469.72 479.667H450.887L450.887 514.321C450.887 517.209 451.609 519.321 453.053 520.654C454.498 521.987 456.609 522.765 459.387 522.987C462.164 523.098 465.609 523.043 469.72 522.821V542.321C465.452 542.802 461.546 543.028 458.001 543C449.271 542.93 442.733 541.315 438.387 538.154C432.387 533.709 429.387 525.765 429.387 514.321L429.387 479.667H414.887V459H429.387L429.387 447.168L450.887 439L450.887 459H469.72V479.667Z" fill="#3130DF"/>
<path d="M554.191 530.333C545.652 538.778 535.227 543 522.917 543C510.607 543 500.182 538.778 491.643 530.333C483.214 521.778 479 511.333 479 499C479 486.667 483.214 476.278 491.643 467.833C500.182 459.278 510.607 455 522.917 455C535.227 455 545.652 459.278 554.191 467.833C562.73 476.278 567 486.667 567 499C567 511.333 562.73 521.778 554.191 530.333ZM506.781 515.5C511.106 519.833 516.485 522 522.917 522C529.349 522 534.728 519.833 539.053 515.5C543.378 511.167 545.541 505.667 545.541 499C545.541 492.333 543.378 486.833 539.053 482.5C534.728 478.167 529.349 476 522.917 476C516.485 476 511.106 478.167 506.781 482.5C502.566 486.833 500.459 492.333 500.459 499C500.459 505.667 502.566 511.167 506.781 515.5Z" fill="#3130DF"/>
<path d="M602.168 468.834C609.835 456.996 616.52 457.001 627.501 457.001V481.001C620.946 480.223 615.057 481.556 609.835 485.001C604.724 488.445 602.168 494.168 602.168 502.168V543H580.668L580.668 465.333L602.168 457V468.834Z" fill="#3130DF"/>
<path d="M723.894 457L680.253 579H656L670.985 537.238L637 457H661.945L682.386 505.316L699.641 457H723.894Z" fill="#3130DF"/>
<path d="M736.882 538.882C734.137 541.627 730.843 543 727 543C723.157 543 719.863 541.627 717.118 538.882C714.373 536.137 713 532.843 713 529C713 525.157 714.373 521.863 717.118 519.118C719.863 516.373 723.157 515 727 515C730.843 515 734.137 516.373 736.882 519.118C739.627 521.863 741 525.157 741 529C741 532.843 739.627 536.137 736.882 538.882Z" fill="#3130DF"/>
<path d="M815.667 457.333H837.167L836.833 543H815.667V530.833C809.222 538.944 800.167 543 788.5 543C777.389 543 767.833 538.778 759.833 530.333C751.944 521.778 748 511.333 748 499C748 486.667 751.944 476.278 759.833 467.833C767.833 459.278 777.389 455 788.5 455C800.167 455 809.222 459.056 815.667 467.167V457.333ZM776 516C780.333 520.333 785.833 522.5 792.5 522.5C799.167 522.5 804.667 520.333 809 516C813.444 511.556 815.667 505.889 815.667 499C815.667 492.111 813.444 486.5 809 482.167C804.667 477.722 799.167 475.5 792.5 475.5C785.833 475.5 780.333 477.722 776 482.167C771.667 486.5 769.5 492.111 769.5 499C769.5 505.889 771.667 511.556 776 516Z" fill="#AEA9FF"/>
<path d="M859.617 481.5C856.062 481.5 852.951 480.222 850.284 477.667C847.728 475 846.451 471.889 846.451 468.333C846.451 464.778 847.728 461.667 850.284 459C852.951 456.333 856.062 455 859.617 455C863.284 455 866.395 456.333 868.951 459C871.617 461.667 872.951 464.778 872.951 468.333C872.951 471.889 871.617 475 868.951 477.667C866.395 480.222 863.284 481.5 859.617 481.5ZM848.617 543L848.951 492.333H870.451L870.117 543H848.617Z" fill="#AEA9FF"/>
<path d="M237.316 427.025C240.644 421.263 248.015 419.29 253.779 422.616C259.543 425.942 261.518 433.309 258.19 439.07L191.237 554.975C187.909 560.737 180.538 562.71 174.774 559.384C169.01 556.058 167.035 548.691 170.363 542.93L237.316 427.025Z" fill="#3130DF"/>
<path d="M155.398 472.489C158.726 466.728 166.097 464.754 171.861 468.081C177.625 471.407 179.6 478.774 176.272 484.535L149.491 530.897C146.163 536.658 138.792 538.632 133.028 535.306C127.264 531.98 125.289 524.613 128.617 518.852L155.398 472.489Z" fill="#F9A712"/>
<path d="M179.503 430.749C182.831 424.988 190.202 423.014 195.966 426.34C201.73 429.666 203.705 437.033 200.377 442.794C197.049 448.555 189.679 450.529 183.915 447.203C178.15 443.877 176.175 436.51 179.503 430.749Z" fill="#AF5FFF"/>
<path d="M279.065 451.112C282.393 445.35 289.764 443.376 295.528 446.703C301.292 450.029 303.267 457.396 299.939 463.157L278.514 500.247C275.186 506.008 267.815 507.982 262.051 504.655C256.287 501.329 254.312 493.962 257.64 488.201L279.065 451.112Z" fill="#5FA8FF"/>
<path d="M233.539 529.934C236.867 524.173 244.238 522.199 250.002 525.525C255.766 528.851 257.741 536.218 254.413 541.979L249.057 551.251C245.729 557.013 238.358 558.987 232.594 555.66C226.83 552.334 224.855 544.967 228.183 539.206L233.539 529.934Z" fill="#F0516C"/>
</svg>
